<?xml version="1.0" encoding="utf-8"?>
<!-- Generator: Adobe Illustrator 27.4.0, SVG Export Plug-In . SVG Version: 6.00 Build 0)  -->
<svg version="1.1" id="Layer_2_00000047050049617959041260000009939106234843920777_"
	 xmlns="http://www.w3.org/2000/svg" xmlns:xlink="http://www.w3.org/1999/xlink" x="0px" y="0px" viewBox="0 0 1531.8 1515.9"
	 style="enable-background:new 0 0 1531.8 1515.9;" xml:space="preserve">
<style type="text/css">
	.st0{fill:#00394F;}
	.st1{fill:none;stroke:#00394F;stroke-width:242.15;stroke-linecap:round;stroke-linejoin:round;}
	.st2{fill:none;stroke:#00394F;stroke-width:100;stroke-linecap:round;stroke-linejoin:round;}
	.st3{fill:none;stroke:#00394F;stroke-width:50;stroke-linecap:round;stroke-linejoin:round;}
</style>
<g id="teacher">
	<g id="body">
		<g>
			<path class="st0" d="M765.9,1340"/>
			<path class="st0" d="M765.9,1340c0,0,230.2-0.3,366.7-145.5c0,0-181.1-286.1-369.9-309c0,0-157.1,3.3-368.3,309
				C394.4,1194.4,482.2,1313.8,765.9,1340"/>
		</g>
	</g>
	<g id="Layer_4">
		<path class="st1" d="M765.9,519.9c6.6,0,22.6,2.1,29.9,3.9c7.3,1.8,21.2,7.5,27.9,11.1c7.4,4,18.1,11.8,24.2,17.6
			c5.6,5.3,15.2,16.8,19.2,23.1c4,6.4,10.9,21,12.9,27.2c2,6.3,5,22.1,5.6,29.6c0.5,7.5-0.6,22.5-1.9,30c-1.6,8.3-5.7,20.9-9.3,28.5
			c-3.3,6.9-11.2,19.7-16.1,25.4c-4.9,5.8-16.6,16.8-21.9,20.7c-5.4,3.9-19.5,11.6-26.5,14.4c-6.9,2.8-21.5,6.4-29.1,7.4
			c-8.4,1.1-21.6,1.1-30,0c-7.6-1-22.2-4.6-29.1-7.4c-7-2.8-21.1-10.6-26.5-14.4c-5.3-3.9-17-15-21.9-20.7
			c-4.8-5.7-12.8-18.5-16-25.4c-3.6-7.6-7.7-20.2-9.3-28.5c-1.4-7.5-2.5-22.5-2-30c0.6-7.5,3.5-23.3,5.6-29.6
			c2-6.3,9-20.8,12.9-27.2c4-6.3,13.7-17.8,19.2-23.1c6.1-5.8,16.9-13.6,24.3-17.6c6.7-3.7,20.7-9.3,27.9-11.1
			C743.4,522,759.3,519.9,765.9,519.9L765.9,519.9z"/>
	</g>
	<g id="Layer_3">
		<path class="st2" d="M770.6,127.8c8.2,0,46.3,1.9,61.9,3.2c15.5,1.6,49.3,6.4,61.1,8.6c15.1,3.2,45.3,10.6,60.3,14.8
			c14.8,4.5,38.8,12.5,58.2,20.1c14.3,6,42.6,19,56.4,25.9c20.3,10.7,40.7,23,54.2,31.6c13.4,9,39.5,27.7,52.1,37.5
			c9.7,7.7,36,31.3,47.6,42.4c11.4,11.4,38.3,40.4,43.5,46.7c9.9,12.4,29.1,38,38.3,51.2c8.9,13.3,23.8,37.3,33,54.2
			c7.3,14.1,21.2,43.1,27.5,57.7c8.9,21.8,16.7,44.4,21.4,59.6c4.4,15.4,12.3,46.4,15.6,61.9c2.4,12.1,7.3,46.9,9,62.8
			c1.3,16,3.2,55.4,3,63.5c-0.4,15.8-2.3,47.6-3.8,63.6c-1.8,15.8-5.9,43.7-9.8,62.6c-3.5,15.5-11.7,46.5-16.3,61.8
			c-7.3,22.4-16,44.7-22.2,59.3c-6.6,14.6-20.7,43.4-28.2,57.4c-6,10.8-24.8,40.6-33.8,53.8c-9.3,13.1-33.5,44.4-38.8,50.6
			c-10.6,11.8-32.7,35-44.2,46.3c-11.7,11-32.9,29.7-48.1,41.7c-12.8,9.6-39.1,28.2-52.6,36.9c-20.1,12.5-40.6,23.7-54.3,30.7
			c-14,6.8-42.4,19.5-56.7,25.3c-14.3,5.6-43.6,15.1-58.5,19.4c-15.1,4.1-45.3,11.1-60.4,14.2c-7.7,1.5-45.8,6.4-61.4,7.9
			c-15.6,1.1-51.9,2.6-61.8,2.4c-15.4-0.5-46.4-2.4-62-3.9c-15.4-1.8-42.5-5.7-60.9-9.4c-15.1-3.4-45.3-11.1-60.2-15.5
			c-21.6-6.8-37-12.3-57.9-20.9c-14.2-6.2-42.4-19.5-56.2-26.5c-16.5-8.9-40.6-23.7-54-32.4c-13.3-9.1-39.1-28.2-51.6-38
			c-6.3-5.1-35.6-31.8-47.1-43.1c-11.2-11.5-35-37.6-42.8-47.2c-9.8-12.5-28.7-38.4-37.8-51.7c-8.7-13.4-21.2-33.8-32.3-54.6
			c-7.2-14.3-20.7-43.4-26.9-58c-7.1-17.9-16-44.7-20.6-59.9c-4.3-15.5-11.7-46.5-14.9-62c-1.5-8-6.6-47.1-8.1-63.1
			c-1.1-16-2.4-51.1-2.2-63.4c0.6-15.8,2.9-47.8,4.5-63.7c2-15.8,5.7-39.4,10.6-62.4c3.7-15.5,12.3-46.4,17-61.6
			c6.2-18.2,16.7-44.4,23.1-59c6.8-14.6,21.1-43.1,28.8-57c4-7.1,25.4-40.3,34.6-53.5c9.5-13,31.3-40.7,39.4-49.9
			c10.7-11.8,33.1-34.7,44.7-45.9c11.8-10.8,29.9-26.6,48.6-41c12.9-9.5,39.5-27.7,53-36.3c16.5-10,40.7-23,54.6-29.9
			c14.1-6.7,42.6-19,56.9-24.7c9.2-3.5,43.8-14.5,58.8-18.7c15.1-3.9,52.6-12.2,60.4-13.4c15.2-2.3,46-5.9,61.6-7.2
			C739.8,128.8,767.2,127.8,770.6,127.8L770.6,127.8z"/>
	</g>
	<g id="Layer_2-2">
		<path class="st3" d="M771.7,38.4c15.6,0.3,47.1,1.8,62.9,3c15.8,1.5,50.2,5.9,62.2,8c15.4,3,46.3,9.8,61.7,13.7
			c15.2,4.1,40.4,11.7,59.8,18.6c14.7,5.6,44.1,17.6,58.5,24.1c20.5,9.6,41.9,21,55.6,28.8c13.6,8,40.4,24.9,53.5,33.7
			c12.8,9,37.6,28.1,49.8,38.1c12.1,10.3,35.5,31.4,46.8,42.2c6.2,6,32.2,34.3,42.6,46.3c10.2,12.2,32.6,40.8,38.7,49.5
			c8.8,12.9,25.9,39.5,34.1,53.1c7.9,13.7,21.2,38.2,29.4,55.3c6.5,14.3,18.9,43.5,24.6,58.2c2.7,7.4,7.9,22.1,10.5,29.5
			c4.6,14.9,12.9,45.3,16.6,60.8c3.4,15.4,10,49.6,11.7,61.7c1.9,15.6,5,47.1,6,62.9c0.7,15.7,1.3,42,0.7,62.6
			c-0.7,15.7-3.2,47.4-4.8,63.1c-2.8,22.5-7.1,46.4-10.2,61.8c-3.4,15.4-11.2,46.2-15.5,61.3c-4.6,14.9-15.1,44.4-20.8,59.2
			c-6,14.7-18.9,43.5-25.7,57.6c-3.8,7.7-22.7,41.2-30.8,54.8c-8.4,13.4-28.7,43.6-35.1,52.1c-9.6,12.4-29.6,36.9-39.9,48.9
			c-10.6,11.7-29.7,31.9-43.5,45.1c-11.6,10.6-35.5,31.4-47.8,41.4c-6.2,4.8-18.6,14.4-24.8,19.1c-12.8,8.9-39.1,26.2-52.6,34.6
			c-13.6,8-44.1,24.8-55.1,30.1c-14.2,6.7-43.2,19.3-57.9,25.2c-14.7,5.6-39.6,14.2-59.3,20.1c-15.2,4.2-46,11.6-61.4,14.9
			c-22.2,4.3-46.3,7.6-61.9,9.4c-15.8,1.5-47.4,3.6-63,4.2c-15.6,0.3-46.9-0.6-62.7-1.5c-15.8-1.2-47.2-4.5-62.7-6.6
			c-8.5-1.3-46.2-8.8-61.7-12.4c-15.4-3.9-50.3-13.8-60.4-17.3c-14.8-5.2-44.2-16.7-58.8-22.9c-14.4-6.4-39.5-18.4-56.3-27.4
			c-13.7-7.7-40.8-24.1-54.1-32.6c-6.5-4.4-19.4-13.2-25.8-17.7c-12.5-9.4-37-29.1-49.2-39.4c-11.9-10.5-37.2-34.3-45.7-43
			c-10.7-11.4-31.7-35.2-41.8-47.3c-9.9-12.3-25.8-33.2-37.4-50.2c-8.6-13.2-25.3-40.2-33.2-53.8c-10.9-19.8-21.6-41.7-28.1-55.9
			c-6.3-14.5-18.1-43.9-23.5-58.7c-5.1-14.8-13.9-44.8-18-60.1c-3.8-15.4-10.3-46.3-13.1-61.7c-1.4-8.5-5.9-46.7-7.3-62.5
			c-1.1-15.8-2.4-52.1-2.2-62.8c0.4-15.7,2.2-47.2,3.6-63c1.7-15.7,5.3-43.3,8.7-62.1c3.1-15.4,10.3-46.3,14.3-61.6
			c2.1-7.5,6.6-22.6,8.9-30c5.1-14.8,16.2-44.2,22.3-58.9c6.3-14.5,21.1-46,26.8-56.7c7.6-13.7,23.6-41,32.1-54.4
			c8.6-13.2,23.6-34.8,36.2-51.1c9.9-12.3,30.4-36.5,41-48.2c15.5-16.5,33-33.4,44.5-44c11.9-10.5,36.2-30.8,48.5-40.5
			c12.5-9.4,38.3-27.1,51.6-35.6c13.5-8.3,40.8-24.1,54.6-31.5c7.6-4,42.6-20,57.2-26.2c14.7-5.9,48.9-18.4,59-21.5
			c15-4.4,45.6-12.5,61-16.1c15.4-3.3,42.8-8.4,61.7-10.9c15.6-1.8,47.2-4.5,63-5.4C748.2,39,763.9,38.5,771.7,38.4L771.7,38.4z"/>
	</g>
</g>
</svg>
