<?xml version="1.0" encoding="UTF-8"?>
<svg id="Layer_2" data-name="Layer 2" xmlns="http://www.w3.org/2000/svg" viewBox="0 0 918 923">
  <defs>
    <style>
      .cls-1 {
        stroke-width: 34.71px;
      }

      .cls-1, .cls-2, .cls-3 {
        stroke: #fff;
        stroke-linecap: round;
      }

      .cls-1, .cls-3 {
        fill: none;
        stroke-linejoin: round;
      }

      .cls-2 {
        fill: #fff;
      }

      .cls-4 {
        fill: currentColor;
      }

      .cls-3 {
        stroke-width: 7.65px;
      }
    </style>
  </defs>
  <g id="Layer_1-2" data-name="Layer 1">
    <ellipse id="circel" class="cls-4" cx="459" cy="461.5" rx="459" ry="461.5"/>
    <g id="Layer_5" data-name="Layer 5">
      <path class="cls-1" d="m708.09,783.14c-155.75,121.55-373.47,115.42-520.7-16.44C27.29,621.36,9.45,381.19,140.71,212.75"/>
      <path class="cls-1" d="m215.04,140.51c165.32-124.87,401.75-102.01,540.56,50.77,131.03,142.25,141.28,364.07,24.47,517.95"/>
    </g>
    <g id="Layer_7" data-name="Layer 7">
      <path class="cls-3" d="m738.27,232.33c2.71,3.28,25.18,37.06,31.18,46.58,4.56,7.59,14.45,25.35,16.69,29.96,3.5,7.45,9.78,22.23,12.42,29.52,1.87,5.42,6.86,21.82,8.87,29.14,2.71,10.61,4.57,19.04,6.58,29.93,1.27,7.68,3.38,23.22,4.21,31.06.69,7.81,1.61,23.36,1.85,31.1.09,4.49-.62,23.22-1.16,31.01-.69,7.81-2.51,23.45-3.63,31.19-1.27,7.68-4.19,22.88-6.08,30.37-2.02,7.49-6.5,22.43-8.97,29.89-2.61,7.43-8.22,22.02-11.22,29.18-4.42,10.03-9.97,20.9-13.66,27.72-3.83,6.79-11.94,20.22-16.18,26.82-10.88,16.23-25.11,34.24-38.39,48.55-5.44,5.64-16.61,16.6-22.32,21.88-5.77,5.14-15.04,13.02-23.75,19.6-6.26,4.54-19.12,13.3-25.71,17.52-6.66,4.09-20.11,11.83-26.9,15.47-6.82,3.53-20.86,9.78-28,12.74-7.24,2.83-21.95,8.1-29.35,10.51-7.41,2.26-25.35,7.14-29.71,8.04-7.53,1.49-22.77,4.04-30.47,5.11-7.77.92-23.26,2.3-30.97,2.77-11,.44-19.51.49-30.41.18-7.53-.36-24.51-1.63-30.18-2.27-7.65-.98-23.3-3.85-31.26-5.62-4.93-1.16-24.18-6.87-32.47-9.64-41.65-14.86-55-21.9-55.85-22.35"/>
      <path class="cls-3" d="m229.2,745.69c-8.67-8.28-33.14-31.77-42.53-41.74-8.13-9.05-14.43-16.66-21.22-25.66-4.6-6.45-13.13-19.5-17.08-26.11-3.82-6.65-11.06-20.11-14.48-26.92-2.11-4.28-9.43-21.21-12.31-28.47-2.74-7.34-7.8-22.2-10.11-29.66-2.15-7.47-6.04-22.43-7.56-30-1.4-7.63-3.79-23.05-4.78-30.85-.84-7.84-2.06-23.44-2.44-31.2-.34-10.97,0-23.2.38-30.96.54-7.79,2.06-23.44,3.05-31.24,2.81-19.39,7.89-41.84,13.7-60.54,2.47-7.46,7.82-22.23,10.69-29.48,2.99-7.16,7.95-18.32,12.97-28.06,3.69-6.82,11.5-20.34,15.63-27.04,4.24-6.59,13.03-19.45,17.58-25.7,4.62-6.16,14.58-17.94,19.75-23.73,5.3-5.72,16.28-16.9,21.91-22.32,5.71-5.28,19.78-17.52,23.32-20.24,6.14-4.64,18.77-13.61,25.25-17.94,6.6-4.22,19.96-12.25,26.71-16.04,10.2-5.48,17.04-8.8,27.65-13.43,7.14-2.96,21.7-8.49,29.09-11.06,7.4-2.41,22.22-6.78,29.65-8.73,4.32-1.09,22.58-4.56,30.23-5.76,7.7-1.07,23.22-2.75,30.96-3.37,7.71-.47,23.05-.98,30.71-.78,7.68.31,23.12,1.39,30.88,2.16,7.76.92,23.12,3.19,30.71,4.54,10.36,2.05,22.23,4.97,29.5,6.93,7.24,2.09,23.22,7.19,28.84,9.26,7.26,2.8,24.93,10.78,29.42,13.1,4.3,2.23,22.32,12.72,29.93,17.5,13.86,9.29,33.11,22.22,38.5,25.86"/>
    </g>
    <path id="The_T" data-name="The T" class="cls-2" d="m644.69,250.54v45.43c0,7.09-5.75,12.84-12.84,12.84h-106.66c-7.09,0-12.84,5.75-12.84,12.84v395.03c0,7.09-5.75,12.84-12.84,12.84h-80.83c-7.09,0-12.84-5.75-12.84-12.84v-395.03c0-7.09-5.75-12.84-12.84-12.84h-101.69c-7.09,0-12.84-5.75-12.84-12.84v-45.43c0-7.09,5.75-12.84,12.84-12.84h340.54c7.09,0,12.84,5.75,12.84,12.84Z"/>
  </g>
</svg>