<?xml version="1.0" encoding="UTF-8"?>
<svg id="Layer_2" xmlns="http://www.w3.org/2000/svg" version="1.1" viewBox="0 0 1502.4 1502.5">
  <!-- Generator: Adobe Illustrator 29.0.0, SVG Export Plug-In . SVG Version: 2.1.0 Build 186)  -->
  <defs>
    <style>
      .st0 {
        fill: #00394f;
      }

      .st1 {
        fill: #fff;
      }
    </style>
  </defs>
  <g id="Layer_1-2">
    <g id="Layer_2-2">
      <path class="st0" d="M1501.4,711v-.5c-1.1-16.4-4.1-48.2-6.1-64.3v-.4c-1.8-12.9-8.5-47.9-12-63.6,0-.2,0-.3,0-.5-3.9-16-12.3-46.8-17-62.2,0-.3-.2-.6-.3-.9-2.6-7.6-7.9-22.4-10.7-29.9,0-.2,0-.3-.2-.5-6-15.3-18.4-44.8-25.2-59.5,0-.1,0-.3-.2-.4-8.4-17.5-21.9-42.4-30.3-57,0-.1-.2-.3-.2-.4-8.5-14.1-25.8-41-34.9-54.3,0,0,0-.2-.2-.3-6.8-9.6-29.9-39.1-39.9-51.1,0-.1-.2-.2-.3-.4-10.5-12.1-37.3-41.2-44-47.8,0,0-.2-.1-.2-.2-11.6-11.1-35.3-32.5-47.9-43.2,0-.1-.2-.2-.4-.3-12.8-10.5-38-29.8-51.3-39.2,0-.1-.3-.2-.4-.3-13.6-9.1-40.7-26.1-54.7-34.4,0,0-.3-.2-.4-.2-6.8-3.8-31.1-17.3-57.3-29.6,0,0-.3,0-.4-.2-15-6.7-44.6-18.9-59.8-24.6,0,0-.3,0-.5-.2-19.8-7.1-45.8-14.9-61.6-19.2-.2,0-.3,0-.5-.1-15.9-4-47.1-11-63.1-14h-.4c-12.8-2.3-48.2-6.7-64.2-8.2h-.5c-16.3-1.2-48.1-2.8-64.4-3h-.9c-8,.2-23.7.6-31.8.9h-.5c-16.3.9-48.2,3.7-64.4,5.5h-.5c-19.2,2.6-47.1,7.7-63.6,11.2,0,0-.3,0-.4.1-16,3.7-46.9,11.8-62.5,16.4h-.3c-11.3,3.5-46.5,16.4-60.9,22.2-.2,0-.3,0-.4.2-14.8,6.2-50.6,22.7-59,27.1,0,0-.2,0-.3.2-14.3,7.7-42,23.7-55.8,32.2-.1,0-.3.2-.4.3-14,9-40.2,27-53.1,36.7-.1.1-.3.2-.4.3-12.8,10-37.3,30.5-49.6,41.4-.1.1-.2.2-.4.3-5.7,5.2-25.9,24-45.9,45.3-.1.1-.2.2-.3.4-10.9,12.1-31.7,36.5-41.9,49.3-.1.1-.2.2-.3.4-12.9,16.7-28.4,39-37.3,52.6,0,.1-.2.2-.2.4-8.7,13.8-25,41.4-32.8,55.7,0,.1,0,.2-.2.3-6.2,11.6-21.3,43.8-27.7,58.5,0,.1,0,.3-.2.4-6.3,15.3-17.6,45.2-22.8,60.3,0,.3-.2.6-.3.8-2.4,7.9-6.9,23-9,30.5,0,.2,0,.3-.1.5-4.1,15.8-11.4,47-14.6,63v.5c-3.4,19-7.2,47.1-9,63.9v.5c-1.4,16.5-3.2,48.4-3.7,64.4v.4c-.2,11.9,1.2,49.4,2.3,64.8v.5c1.4,15.9,5.9,55.1,7.5,64.5v.3c2.9,15.9,9.5,47.2,13.4,63.1,0,.2,0,.3.1.5,4.2,16,13.2,46.4,18.5,61.8,0,.2,0,.3.2.5,5.6,15.3,17.5,45,24,60,0,0,0,.3.2.4,3.2,7.1,14.9,32.1,28.9,57.6,0,0,.2.3.2.4,8.1,14.1,24.9,41.3,33.9,55.1,0,0,.2.3.3.4,11.9,17.3,28.3,39,38.5,51.7.1,0,.2.2.3.4,10.6,12.7,31.8,36.7,42.8,48.4,0,0,.2.2.3.3,9.1,9.4,35.1,33.8,47.1,44.4.1,0,.2.2.4.3,12.5,10.6,37.4,30.5,50.3,40.3.2.2.5.4.7.5,6.7,4.7,19.7,13.6,26.2,18,.1,0,.3.2.4.3,13.8,8.9,41.2,25.4,55.4,33.4.1,0,.3,0,.4.2,16.8,9.1,42.5,21.3,58,28.3.2,0,.3,0,.5.2,15.2,6.4,45,18,60.2,23.4.1,0,.2,0,.3,0,11.2,3.8,47.3,14,62.3,17.8.2,0,.3,0,.5,0,15.6,3.6,54.3,11.4,63.7,12.8h.3c16,2.2,47.8,5.5,64.1,6.8h.5c14.4.8,40.2,1.6,57.4,1.6s5.1,0,7.2,0h.5c16.3-.6,48.3-2.7,64.5-4.3h.5c7.8-.9,35.2-4.2,63.8-9.7h.5c15.9-3.4,47-10.9,62.9-15.2.2,0,.3,0,.5,0,20.2-6,45.2-14.7,61.1-20.6,0,0,.3,0,.4-.2,15.3-6.1,44.6-18.9,59.3-25.7,0,0,.2,0,.3-.2,11.7-5.7,42.9-22.9,56.8-31.1,0,0,.3-.2.4-.2,13.9-8.6,40.6-26.1,53.9-35.4.2-.2.5-.3.7-.5,6.2-4.7,18.7-14.3,25.2-19.4,0,0,.2-.2.4-.3,12.6-10.3,36.8-31.3,48.9-42.3,0,0,.2-.2.4-.3,14-13.3,33.5-33.9,44.8-46.4,0,0,.2-.2.3-.4,10.8-12.5,31.1-37.3,40.9-50,0,0,0-.2.2-.3,7.1-9.6,28-40.7,36.2-53.7,0,0,.2-.3.2-.4,8.5-14.1,27.6-48,31.8-56.6,0,0,0-.2,0-.3,7-14.6,20-43.8,26.2-58.9,0-.2,0-.3.2-.5,6-15.5,16.7-45.4,21.4-60.9,0-.2,0-.3,0-.5,4.4-15.6,12.3-46.6,15.8-62.7v-.5c1.5-7.6,6.8-34.7,10.5-63.6v-.5c1.7-16.3,4.2-48.2,4.9-64.5v-.5c.6-21,0-47.5-.8-64.5v-.2ZM1452.2,773.9c-.7,15.2-3.1,45.8-4.7,61.1-2.7,21.5-6.8,44.7-9.8,59.5-3.3,15-10.9,44.8-15,59.4-4.4,14.2-14.4,42.6-20,56.9-5.9,14.2-18.3,42.2-24.9,55.9-3.5,7-21.6,39.2-29.7,52.7-8.2,13-27.8,42.1-33.7,50.1-9.2,11.9-28.6,35.7-38.8,47.4-10.8,12-29.3,31.4-41.9,43.4-11.3,10.4-34.5,30.5-46.3,40.1-6.2,4.8-17.9,13.9-23.9,18.4-12.5,8.7-37.9,25.4-50.9,33.4-12.8,7.5-42.5,23.9-52.9,29-13.7,6.4-41.9,18.7-56.2,24.4-14.5,5.4-38.3,13.8-57.1,19.3-14.8,4-44.7,11.3-59.6,14.4-26.4,5.1-52,8.2-59.6,9.1-15.2,1.4-45.8,3.5-61.1,4.1-14.8.2-44.9-.6-60.3-1.4-15.3-1.2-45.8-4.4-60.8-6.4-7.8-1.2-44.1-8.4-59.3-12-14.9-3.8-48.8-13.5-58.1-16.6-14.2-5.1-42.8-16.2-57.1-22.2-14.7-6.5-38.5-18-54.2-26.4-13.3-7.5-39.5-23.3-52.5-31.6-6.2-4.1-18.4-12.5-24.8-17-12.2-9.2-35.9-28.2-47.5-38-12-10.6-36.4-33.6-43.9-41.4-10.3-11-30.6-34-40.6-45.9-9.6-12-24.9-32.2-36-48.3-8.4-12.9-24.5-39-32.1-52.2-10.4-18.9-20.8-40.2-27-53.8-6.1-14-17.5-42.5-22.8-56.9-4.9-14.2-13.4-43-17.3-57.8-3.6-15-10-45-12.7-59.8-1.3-7.8-5.6-44.5-7-60.1-1-15.3-2.3-50.4-2.2-60.4.4-15,2.2-45.6,3.5-61.1,1.7-16.1,5.3-42.7,8.4-59.7,3-15,10-44.9,13.9-59.7,2-7.1,6.2-21.3,8.5-28.9,4.9-14.2,15.7-42.6,21.5-56.9,6.4-14.7,20.7-44.9,25.8-54.6,7.4-13.4,23-39.8,31.1-52.8,8.4-12.8,22.8-33.6,34.8-49.2,9.6-12,29.5-35.4,39.7-46.7,14.8-15.8,31.8-32.2,42.8-42.3,11.5-10.2,35.1-29.8,47.1-39.2,11.9-8.9,36.7-25.9,49.7-34.3,13-8,39.6-23.3,53-30.6,7-3.6,40.6-19.1,55-25.2,14.3-5.7,47.4-17.8,56.8-20.7,14.5-4.3,44.2-12.1,59.2-15.6,15.8-3.4,42.2-8.2,59.4-10.5,15.2-1.7,45.8-4.4,61.1-5.3,7.6-.3,22.4-.7,30.1-.8,15.3.3,45.6,1.7,60.8,2.9,15.1,1.5,48.2,5.6,59.9,7.7,14.9,2.9,44.9,9.5,59.8,13.3,14.9,4.1,39.1,11.4,57.5,17.9,14.3,5.4,42.7,17.1,56.7,23.3,24.2,11.4,46.8,23.9,53.5,27.7,13.2,7.8,39.1,24.1,51.8,32.6,12.3,8.6,36.1,26.9,48,36.6,11.8,10.1,34.6,30.6,45.5,41,5.6,5.5,30.6,32.6,40.9,44.5,9.9,11.9,31.6,39.6,37.2,47.6,8.6,12.5,25.2,38.3,33.1,51.5,8.1,14,20.8,37.5,28.3,53.2,6.3,13.8,18.3,42.1,23.8,56.4,2.6,7.1,7.6,21.1,10.1,28.4,4.4,14.5,12.4,43.8,16,58.7,3.3,14.8,9.6,47.6,11.2,59.3,1.9,15.1,4.8,45.6,5.8,61,.7,15.5,1.2,40.8.7,60.3l.3-.2Z"/>
    </g>
    <g id="Layer_3">
      <path class="st0" d="M1440.1,688.6c0-.4,0-.7,0-1.1-1.8-17-6.9-53.3-9.7-67.3,0-.3,0-.6-.2-.8-3.5-16.3-11.7-48.6-16.4-65.2,0-.4-.2-.7-.3-1.1-3.1-9.9-11.5-36-22.9-63.6,0-.4-.3-.7-.4-1-6.8-15.6-21.2-45.8-29-60.8-.2-.3-.4-.7-.5-1-9.9-18-25.2-42.7-35.3-57.9-.2-.3-.4-.6-.6-.9-9.8-14-29.7-40.7-40.3-53.9,0-.1-.2-.3-.3-.4-6.9-8.4-35.4-38.9-46.8-50.3-.2-.2-.5-.5-.8-.7-12.4-11.9-39.9-36.5-51-45.4-.2-.2-.4-.3-.7-.5-13.4-10.4-40.6-29.9-54.8-39.4-.3-.2-.6-.4-.9-.6-8.7-5.6-31.8-20-57.8-33.7-.3-.2-.7-.3-1-.5-14.7-7.3-44.1-20.8-59.3-27.2-.3,0-.7-.3-1-.4-21.4-8.5-46.8-16.9-62-21.5-.3,0-.7-.2-1-.3-16.1-4.5-47.5-12.2-63.4-15.6-.2,0-.5,0-.8-.2-13.4-2.6-48.8-7.5-65.4-9.3h-1.1c-16.1-1.4-55.5-3.4-66-3.4h0c-5.3,0-33.8,1-49.4,2h-1.1c-16.5,1.4-48.6,5.1-64.8,7.5h-.5c-10.3,1.6-49.7,10.4-65,14.4-.3,0-.7.2-1,.3-15.8,4.4-51.8,15.8-63.1,20.1-.2,0-.4.2-.6.2-15,6-44.7,18.8-59.8,26-.3.1-.7.3-1,.5-15.8,7.8-40.8,21.3-58.2,31.9-.3.2-.7.4-1,.6-14.4,9.2-42,28.1-55.7,38.2-.3.2-.6.4-.9.7-23.6,18.2-44.1,36.7-51.8,43.7-.3.2-.6.5-.8.8-12.4,11.9-35.7,35.8-47.1,48.3-.2.2-.4.4-.6.6-9.4,10.7-32.2,39.6-42.3,53.5-.2.3-.4.6-.6.9-9.3,13.3-32,48.2-37.2,57.6,0,.2-.2.3-.3.5-8.2,14.9-23.1,44.6-30.3,60-.2.3-.3.7-.5,1-7.1,16.2-18.1,43.8-24.6,63,0,.4-.2.7-.4,1.1-5.1,16.2-13.9,48.3-17.9,64.8,0,.4-.2.7-.3,1.1-6.3,29.1-10,56.3-11.4,66.6,0,.4,0,.8,0,1.1-1.8,17-4.2,50.2-4.8,67v.8c-.3,14.2,1.1,50.9,2.3,68v1.1c1.5,16.1,6.8,57.4,8.8,67.9,0,.2,0,.3,0,.5,3.4,16.4,11.1,48.8,15.7,65.2,0,.4.2.7.3,1.1,5.1,16.9,14.5,45,22,64,0,.3.3.7.4,1.1,6.6,15.5,20.6,45.8,28.3,61,.2.3.4.7.5,1,14,26.3,28.8,49.5,34.5,58.3.2.3.4.6.6.9,9.7,14.2,29.4,41.2,39.8,54.4.2.2.3.4.5.7,9,11,33.8,38.3,45.8,50.6.2.2.5.5.8.8,11.5,11.3,42.2,39.5,50.8,46.4.1,0,.3.2.4.3,13.2,10.4,40.1,30.2,54.3,40,.3.2.6.4.9.6,14.8,9.7,40,25.1,57.6,34.6.3.2.6.3.9.5,14.6,7.5,43.8,21.3,59.1,27.9.3,0,.7.3,1,.4,22.1,9,38.8,15.1,61.7,22.3.3,0,.7.2,1,.3,15.9,4.6,47.2,12.7,63.3,16.3.4,0,.7,0,1.1.2,19.4,3.9,48,8.1,64.9,10.1.4,0,.7,0,1.1,0,16.6,1.6,48.8,3.6,65.1,4.1h3c14,0,48.9-1.5,63.9-2.6h1c15.7-1.5,55.8-6.6,66-8.5h.5c16-3.2,47.4-10.6,63.5-14.9.3,0,.7-.2,1-.3,15-4.4,45.9-14.3,62.6-20.8.2,0,.5-.2.8-.3,15.2-6.2,44.7-19.4,59.6-26.6.3-.2.7-.3,1-.5,9.1-4.6,32.9-17.2,58-32.8.3-.2.6-.4,1-.6,14.3-9.4,41.7-28.6,55.3-38.8.3-.2.6-.4.9-.7,16-12.6,38.4-32.3,51.3-44.5l.8-.8c12.2-12,35.2-36.1,46.4-48.7,0,0,.2-.3.3-.4,7.1-8.2,32.5-41.2,41.9-54.4.2-.3.4-.6.6-.9,9.7-14.2,29.3-45.3,36.2-57.7,0-.2.3-.5.4-.8,8-15,22.7-44.9,29.6-60.4.2-.3.3-.6.4-1,4.1-9.6,14.5-34.9,23.8-63.3,0-.4.2-.7.3-1.1,4.9-16.3,13.4-48.5,17.2-65,0-.4.2-.7.2-1.1,4.1-19.9,8.4-49.2,10.5-66.8,0-.4,0-.8,0-1.2,1.6-17.1,3.6-50.3,4-66.9v-.5c.2-10.8-1.9-52.3-3.2-68.4l.4-.2ZM1339.7,814.6c-1.8,15.6-5.6,40.9-8.9,57.2-3.3,14.3-10.9,43.3-15.2,57.5-8,24.6-17.3,47.1-20.3,54.2-6.1,13.5-19.4,40.5-26.2,53.5-5.1,9.1-22.3,36.4-30.9,49.1-9.1,12.7-31,41.1-35.4,46.2-9.7,10.9-30.5,32.7-41.2,43.2-11.5,10.8-30.8,27.7-44,38.2-11.8,8.9-36.5,26.2-48.9,34.4-21.2,13.2-41.5,23.9-49.7,28.1-13,6.3-39.7,18.2-52.9,23.6-12.1,4.7-38.8,13.4-53.5,17.7-14.1,3.8-42.6,10.4-56.4,13.2-6.4,1.2-41,5.7-56,7.1-15.2,1.1-48.2,2.4-56.5,2.3-14.1-.5-43.4-2.3-57.8-3.6-15.1-1.8-39.7-5.4-55.8-8.6-14-3.1-42.2-10.4-56.1-14.4-19.8-6.3-33.8-11.3-52.9-19.1-13.2-5.8-39.6-18.2-52.3-24.7-14.3-7.8-36.6-21.3-49.5-29.7-12.4-8.5-36.7-26.5-48.2-35.5-5.2-4.3-31.8-28.5-43-39.4-10.7-11-32.5-35-39.1-43.1-9-11.5-26.7-35.8-35.2-48.1-4.2-6.5-17.4-27.2-29.5-49.9-6.7-13.3-19.3-40.5-25-54-6.2-15.6-14.3-39.8-18.8-54.8-4-14.4-11-43.7-13.9-57.8-1.2-6.6-5.9-42-7.4-57.5-1-15.2-2.2-47.4-2-57.9.6-14.6,2.7-44.5,4.2-59.3,1-7.7,4.3-31.9,9.7-57,3.5-14.3,11.4-43.2,15.8-57.3,5.4-15.8,14.8-39.6,21.1-54,6.2-13.4,19.8-40.3,26.8-53.1,3.3-5.8,22.8-36,31.7-48.8,9.1-12.4,29.1-37.8,36-45.7,9.9-10.8,30.9-32.4,41.7-42.8,7-6.4,24.5-22.1,44.5-37.5,11.9-8.8,36.8-25.8,49.3-33.8,14.2-8.6,36.3-20.5,49.9-27.3,13.2-6.2,40.1-17.9,53.1-23,7.6-2.8,39-12.8,53.8-17,14.7-3.8,48.8-11.2,55.1-12.3,14-2.1,43.2-5.5,57.6-6.7,14.4-.9,38.5-1.7,42.6-1.8h0c6.3,0,41.4,1.7,57,3,15,1.6,46.1,6,55.9,7.9,13.8,2.9,42.2,9.9,56.3,13.8,14.3,4.4,36.1,11.7,53.2,18.4,13.2,5.6,39.7,17.8,52.6,24.1,22.5,11.9,43.1,24.8,49.6,28.9,12.4,8.3,36.9,26,48.6,35,8.2,6.6,32.4,28.2,43.4,38.8,10.9,11,35.4,37.4,39.7,42.6,9.1,11.4,27.2,35.5,35.7,47.7,8.7,13.1,22.2,34.9,30.2,49.6,6.8,13.1,19.7,40.1,25.6,53.7,9.8,24,17.2,47.1,19.6,54.5,4.1,14.4,11.5,43.5,14.6,57.7,2,10.3,6.5,42.2,8.2,57.4,1.2,15.5,2.9,51.3,2.8,57.9-.4,14.4-2.2,44.4-3.6,59.3v-.3Z"/>
    </g>
    <g id="Layer_4">
      <path class="st0" d="M913.3,453.6c-.7-.7-1.3-1.3-1.9-1.9-41.1,15.5-81.5,33.4-123.5,46.4-11.6,3.5-23.6,6.2-35.6,7.6-10.2,1.1-20.5,1.1-30.7.2-1.8-.2-6.7-.8-8.4-1-1.8-.3-6.4-1-8.3-1.3-46.2-9.2-90.2-26.9-134.8-41.9h0c2.9,1.1,5.7,2.2,8.6,3.2,41.3,15.5,82.4,32.4,125.6,41.6,2,.3,6.5,1.1,8.4,1.5,1.7.2,6.8.9,8.5,1.1,13.3,1.4,26.7,1.2,39.9-.8,9.3-1.5,18.8-3.6,27.8-6.2,43-12.8,84.2-30.9,126.2-46.5-.6-.6-1.3-1.3-1.9-1.9h.1ZM570,461.6c-9.7,10.5-20.6,23.9-28.4,36.4,0,.2-.2.4-.3.6-.9,1.4-1.8,3-2.8,4.7l31.6-41.7h0ZM945.5,492c-.5-.7-.9-1.4-1.4-2.1-52.4,19.9-104.6,42.5-158.1,59.1-13.7,4.1-27.5,8.1-41.6,10.2-3.5.5-7,.7-10.5.7l-3.4-.3h-.5c-4.7.6-10.2-.2-15.1-.9-27.7-4.9-54.5-14.1-81.3-22.8-23-7.5-45.7-15.7-68.5-23.6h0c-7.6-2.6-15.2-5.2-22.8-7.7-.3-.1-.7-.2-1-.3-.7-.2-1.4-.5-2-.7-.2,0-.5-.2-.7-.2h.2c1.2.4,2.5.9,3.7,1.3,45.7,16.7,91.5,35.2,138.2,49,10.1,3,20.2,5.8,30.6,7.8,6.3,1.1,12.4,2.3,19,1.7,2.9.3,6.3.5,9.2.3,4.2-.3,8.6-.8,12.7-1.6,30.9-5.9,60.5-16.8,90-27.3,34.7-12.6,70.4-27.5,105-40.5-.5-.7-1-1.4-1.5-2.2h-.2Z"/>
      <path class="st0" d="M986.1,610.6v-.3c-1.1-15.1-5.5-40.9-11.1-58,0,0,0-.3,0-.4-5.6-17.1-17.1-40.5-25.1-53.3,0-.1,0-.2-.2-.3-.8-1.3-1.7-2.7-2.6-4-34.6,13-70.3,28-105,40.5-29.5,10.5-59.1,21.4-90,27.3-4.1.8-8.6,1.3-12.7,1.6-2.8.2-6.3,0-9.2-.3-6.6.6-12.7-.6-19-1.7-10.3-2-20.5-4.8-30.6-7.8-46.7-13.8-92.4-32.3-138.2-49-1.2-.5-2.5-.9-3.7-1.3h-.2c-7.7,13.3-17.3,33.5-22.2,48.6v.3c-5.5,17.1-10,42.8-11.1,57.9v.6c-1.4,20.3.9,45.6,3.7,60.5v.3c3.5,18.4,10.9,41.1,18.8,58,0,0,0,.2,0,.3,6.5,13.7,19.5,35.6,32.6,51.2,0,0,.2.2.2.3,9.7,11.5,28.5,29.8,43.1,40.4,0,0,.3.2.4.3,14.6,10.5,37.6,22.7,51.6,28.4,0,0,.3,0,.4.2,18.8,7.6,43.6,13.2,58.7,15.2h.5c9.2,1.2,19.8,1.8,30.3,1.8s21.1-.6,30.3-1.8h.5c15.1-2,39.9-7.6,58.7-15.2.2,0,.3,0,.5-.2,13.9-5.7,37-17.9,51.5-28.4,0,0,.3-.2.4-.3,14.5-10.5,33.2-28.8,43-40.3,0,0,.2-.3.3-.4,13.1-15.6,26.1-37.4,32.6-51.2,0,0,0-.2.2-.4,8-16.9,15.3-39.6,18.8-57.9v-.2c2.8-15,5.1-40.4,3.7-60.7v-.3ZM744.6,626.7h0c0,0,0,0,0,0h0ZM746.3,627.1h0Z"/>
      <path class="st0" d="M911.4,451.7c-41.1,15.5-81.5,33.4-123.5,46.4-11.6,3.5-23.6,6.2-35.6,7.6-10.2,1.1-20.5,1.1-30.7.2-1.8-.2-6.7-.8-8.4-1-1.8-.3-6.4-1-8.3-1.3-46.2-9.2-90.2-26.9-134.8-41.9q-29.7-10,0,0c3.6-4,7.1-7.5,10.1-10.3l.2-.2c13.5-12.8,32.8-26.8,49.2-35.7,0,0,.2-.1.3-.2,13.4-7.3,36.8-17.3,56.5-22.2,0,0,.3,0,.5-.1,14.6-3.6,40.4-7.3,58.3-7.4h.7c17.9,0,43.7,3.8,58.3,7.3.2,0,.3,0,.5.1,19.8,4.9,43.1,15,56.5,22.2,0,0,.2.1.3.2,16.4,9,35.7,23,49.2,35.8l.2.2c0,.1.3.3.5.4h0Z"/>
    </g>
    <g id="Layer_8">
      <path class="st0" d="M1101.8,390.3l-.6,3.6c-.5,3-1.4,6-2.7,8.8l-1.6,3.5c-9.6,9-30.9,2.5-31.2,2.5,0,0,.4.2,1.2.5-9.6-3.4-68.6-23.7-279.3-96-3.2-.1-6.4-.9-9.4-2.3-18.3-8.5-42.5-10.7-72.2-6.7-94.7,31-166.9,54.5-214.6,69.8-23.9,7.7-42.1,13.4-54.3,17.2-6.3,1.9-10.9,3.3-14.2,4.3-2.7.8-6.6,1.9-11,2-3.2,1.2-5.8,2.2-8.1,3.2,1.8,1,3.9,2,6.4,3.2h0c1.5.2,3,.6,4.4,1.2,61,22.4,112,41,155.5,56.8-9.7,10.5-20.6,23.9-28.4,36.4,0,.2-.2.4-.3.6-.9,1.4-1.8,3-2.8,4.7h0c-37.8-13.7-81.1-29.5-131.2-47.9-2.5-.2-5.1-.8-7.5-1.8-15.7-6.4-27.4-12.8-35.9-19.5-16.4-13-19.4-26.6-19-35.8.3-9.2,4.4-22.6,21.7-34.3,9-6.1,21.2-11.6,37.4-16.9,3.2-1,6.4-1.4,9.6-1.2,18.2-5.4,78.2-24.4,261.4-84.3,3.1-2.5,6.9-4.3,11.2-5.1,36.1-6.5,67.7-5.9,94.3,1.7,1.9.2,3.9.6,5.8,1.2,99.3,34.1,174.9,60,224.6,77.1,25,8.6,43.7,15,56.2,19.4,6.3,2.2,11,3.8,14.1,4.9,1.6.6,2.8,1,3.6,1.3,16.5,5.9,18.7,20.4,17.4,28.1l-.5-.2Z"/>
      <path class="st0" d="M1068,409.5c-.2,0-.4-.2-.6-.2.3,0,.5.2.6.2Z"/>
      <path class="st0" d="M565,512.3c-.8,0-1.6-.2-2.3-.4-1-.2-2-.5-3-.9-5.6-2-11.4-4.1-17.3-6.2-1.2-.5-2.5-.9-3.7-1.3h-.2c.2,0,.5.2.7.2.6.2,1.3.4,2,.7.3.1.7.2,1,.3,7.6,2.5,15.2,5.1,22.8,7.7h0Z"/>
      <path class="st0" d="M570.1,461.6l-31.6,41.7c1-1.7,1.9-3.3,2.8-4.7,0-.2.2-.4.3-.6,7.8-12.5,18.8-26,28.4-36.4q6.4-6.9,0,0h0Z"/>
      <path class="st0" d="M570.1,461.7h0c.8.3,1.6.6,2.4.8,1.4.5,2.8,1,4.2,1.5.3.1.6.2.9.4h0c.3.1.7.3,1,.5-2.9-1.1-5.7-2.1-8.6-3.2h0Z"/>
    </g>
    <path class="st1" d="M539.1,503.6c0,0-.3-.1-.5-.1h-.2c.2,0,.5.2.7.2h0Z"/>
    <g id="Layer_5">
      <path class="st0" d="M1111.3,1186.8s0,0-.2,0h0c-39.4,37.2-90.2,67.8-150.8,91.1-60.6,23.2-132.7,39.6-214.5,48.9h-4.4c-81.8-9.2-153.9-25.7-214.5-48.9-60.6-23.2-111.3-53.8-150.8-91,0,0-.2,0-.2-.2-3.3-2.5-4-7.2-1.5-10.5,34.4-45.8,67.8-86.9,99.4-122.1.4-.5.9-.9,1.4-1.2,31.1-34,44.2-47.1,50.5-52.5.4-.7.8-1.4,1.5-2,33.4-32.4,65.5-58.6,95.7-78.1,16.9-11.5,32.6-20.4,47.1-26.8.4-.2.9-.3,1.3-.4,1.9-.9,3.7-1.7,5.6-2.5.7-.5,1.4-1,2.2-1.2.5-.2,1-.3,1.4-.3,20-8.5,40.6-14.1,61.5-16.9h3c24.2,3.2,48,10.3,70.8,21,.4,0,.9.2,1.3.4,10.9,4.8,22.4,11,34.6,18.7,2.7,1.7,5.5,3.5,8.3,5.4s5.7,3.8,8.6,5.8c.4.2.9.4,1.3.7,4.3,2.9,8.6,5.8,12.6,8.7.8.6,1.5,1.3,2,2.1,3.8,2.9,7.6,5.8,11.5,8.9,1.1.2,2.2.7,3.1,1.4,24.2,18.8,49.8,41.9,76.1,68.5.3.3.6.7.9,1.1h0c7.2,7.4,17,17.8,30.6,32.6h0l6,5.4c30.5,34.3,64.1,75.8,99.8,123.4,2.5,3.3,1.8,8-1.5,10.5h.3Z"/>
    </g>
  </g>
</svg>