<?xml version="1.0" encoding="UTF-8"?>
<svg id="Layer_3" data-name="Layer 3" xmlns="http://www.w3.org/2000/svg" viewBox="0 0 517.93 516.89">
  <defs>
    <style>
      .cls-1 {
        fill: #176b88;
      }

      .cls-2 {
        fill: #23375c;
      }

      .cls-3 {
        fill: #23375b;
      }

      .cls-4 {
        fill: #1c5b7b;
      }

      .cls-5 {
        fill: #fff;
      }

      .cls-6 {
        fill: #22365b;
      }

      .cls-7 {
        fill: #166f8c;
      }
    </style>
  </defs>
  <path class="cls-5" d="M387.37,516.55H130.55C58.84,516.55.71,458.42.71,386.71V129.89C.71,58.18,58.84.05,130.55.05h256.82c71.71,0,129.84,58.13,129.84,129.84v256.82c0,71.71-58.13,129.84-129.84,129.84Z"/>
  <path class="cls-7" d="M334.04.12s-10.47,34.21-9.1,54.68c1.37,20.48,4.32,56.2,15.02,76.22,0,0,16.1,38.45,32.97,54.61,0,0,77.61,18.96,143.79,18.92.39-8.2.13-19.78,0-34.05-.24-25.65,1.93-42.57-1.18-58.04-4.71-41.16-29.11-66.02-34.75-72.1-5.7-6.15-33.56-34.47-77.95-39.21-12.92-1.38-41.79-.83-47.66-.97-8.9-.21-16.17-.06-21.14-.05Z"/>
  <path class="cls-7" d="M184.57,516.55s10.18-30.06,8.81-48.58c-1.37-18.52-4.32-50.83-15.02-68.94,0,0-16.1-34.78-32.97-49.39,0,0-77.61-17.14-143.79-17.11-.39,7.41-.13,17.89,0,30.8.24,23.2-1.93,38.5,1.18,52.49,4.71,37.23,29.11,59.71,34.75,65.21,5.7,5.56,33.39,33.58,77.95,35.47,12.75.54,41.59-.08,47.46.04,8.9.19,16.66,0,21.63,0Z"/>
  <path class="cls-1" d="M130.54,61.11L92.05,5.86s-13.93,4.4-19.2,7.69c0,0,47.77,41.92,57.69,47.56Z"/>
  <path class="cls-4" d="M334.53,0s-9.9,38.67-9.22,50.58,4.57,52.74,7.2,57.93c0,0,6.62,23.33,16.97,41.48,0,0,18.41,33.03,24.27,35.84l-6.54-2.13-10.15-15.93-8.53-12.36s-9.18-14.49-10.35-17.14-5.2-10.88-6.52-14.6-4.51-14.64-4.51-14.64c0,0-2.39-11.79-2.77-15.24s-1.51-13.12-1.63-15.13-.09-12.59.01-14.37c0,0-.02-14.75.14-15.96l1.29-18.05s1.63-21.69,2.31-23.36l1.9-6.91h6.14Z"/>
  <path class="cls-3" d="M328.39,0h-51.76s-42.38,0-42.38,0l-53.64.08h-37.54s-22.17.11-24.69.54c0,0-19.35,2.09-26.34,5.24l15.58,22.54,22.59,32.71s56.88,41.21,64.31,44.24c0,0,62.8,38.53,82.06,44.59,0,0,70.03,30.31,93.29,34.67l3.45,1.11s-3.7-2.93-3.76-3.01-7.77-9.31-7.77-9.31l-7.26-9.52-5.52-7.91s-5.16-8.11-6.2-9.94-4.65-8.29-5.46-10.24c0,0-3.89-7.85-4.3-9.37l-2.65-7.28-1.5-4.76s-2.14-7.43-2.48-9.63l-1.59-9.39-1.06-8.21-.64-9.33-.38-12.63.22-13.88.72-13.86,2.03-22.43s1.08-7.23,2.67-15.04Z"/>
  <path class="cls-2" d="M350.61,279.32s103.06,23.36,167.11,22.15v70.99s-83.24-41.86-96.21-49.45c0,0-63.93-36.71-70.91-43.68Z"/>
  <path class="cls-7" d="M210.76,225.78l4.1,200.52s-72.81-54.91-111.03-104.96c0,0-96.27-118.56-103.12-139.9,0,0-4.18-76.81,7.72-95.75,0,0,79.24,67.74,92.89,75.02,0,0,98.97,64.62,109.44,65.07Z"/>
  <path class="cls-1" d="M350.23,279.13l-41.4-12,3.09,232.01v.5s27.87,17.21,27.87,17.21c79.35.64,115.76-6.91,149.16-49.27,29.97-38.02,29.49-81.42,28.77-95.12l-167.49-93.32Z"/>
  <path class="cls-6" d="M.71,181.44s97.2,137.62,120.86,156.74c0,0,76.9,79.63,93.28,85.09v93.28s-47.64,0-47.64,0c-.73-15-4.05-40.56-20.61-69.62-6.19-10.86-18.42-31.8-41.86-47.32-43.1-28.55-92.45-17.85-104.03-15.02v-203.15Z"/>
  <polygon class="cls-6" points="311.9 516.55 339.79 516.85 311.92 499.15 311.9 516.55"/>
  <path class="cls-4" d="M1.09,384.21s31.72-8.91,60.97-2.1c29.25,6.81,40.42,14.04,54.86,26.12,14.44,12.08,28.74,36.18,29.36,37.37,0,0,19,26.08,21.09,70.95-.03-4.98-1.09-37.69-21.52-70.44-7.8-12.51-18.06-25.24-32.71-36.11-49.4-36.66-104.37-24.58-112.07-22.75v-3.03Z"/>
</svg>