<?xml version="1.0" encoding="UTF-8"?>
<svg id="Layer_2" data-name="Layer 2" xmlns="http://www.w3.org/2000/svg" viewBox="0 0 1501.96 1502.1">
  <defs>
    <style>
      .cls-1 {
        fill: #00394f;
      }
    </style>
  </defs>
  <g id="Layer_2-2" data-name="Layer 2">
    <g id="Layer_1-2" data-name="Layer 1-2">
      <g id="Layer_2-2" data-name="Layer 2-2">
        <path class="cls-1" d="m1501.02,710.9v-.5c-1.1-16.4-4.1-48.2-6.1-64.3v-.4c-1.8-12.9-8.5-47.9-12-63.6v-.5c-3.9-16-12.3-46.8-17-62.2,0-.3-.2-.6-.3-.9-2.6-7.6-7.9-22.4-10.7-29.9,0-.2,0-.3-.2-.5-6-15.3-18.4-44.8-25.2-59.5,0-.1,0-.3-.2-.4-8.4-17.5-21.9-42.4-30.3-57,0-.1-.2-.3-.2-.4-8.5-14.1-25.8-41-34.9-54.3,0,0,0-.2-.2-.3-6.8-9.6-29.9-39.1-39.9-51.1,0-.1-.2-.2-.3-.4-10.5-12.1-37.3-41.2-44-47.8,0,0-.2-.1-.2-.2-11.6-11.1-35.3-32.5-47.9-43.2,0-.1-.2-.2-.4-.3-12.8-10.5-38-29.8-51.3-39.2,0-.1-.3-.2-.4-.3-13.6-9.1-40.7-26.1-54.7-34.4,0,0-.3-.2-.4-.2-6.8-3.8-31.1-17.3-57.3-29.6,0,0-.3,0-.4-.2-15-6.7-44.6-18.9-59.8-24.6,0,0-.3,0-.5-.2-19.8-7.1-45.8-14.9-61.6-19.2-.2,0-.3,0-.5-.1-15.9-4-47.1-11-63.1-14h-.4c-12.8-2.3-48.2-6.7-64.2-8.2h-.5c-16.3-1.2-48.1-2.8-64.4-3h-.9c-8,.2-23.7.6-31.8.9h-.5c-16.3.9-48.2,3.7-64.4,5.5h-.5c-19.2,2.6-47.1,7.7-63.6,11.2,0,0-.3,0-.4.1-16,3.7-46.9,11.8-62.5,16.4h-.3c-11.3,3.5-46.5,16.4-60.9,22.2-.2,0-.3,0-.4.2-14.8,6.2-50.6,22.7-59,27.1,0,0-.2,0-.3.2-14.3,7.7-42,23.7-55.8,32.2-.1,0-.3.2-.4.3-14,9-40.2,27-53.1,36.7-.1.1-.3.2-.4.3-12.8,10-37.3,30.5-49.6,41.4-.1.1-.2.2-.4.3-5.7,5.2-25.9,24-45.9,45.3-.1.1-.2.2-.3.4-10.9,12.1-31.7,36.5-41.9,49.3-.1.1-.2.2-.3.4-12.9,16.7-28.4,39-37.3,52.6,0,.1-.2.2-.2.4-8.7,13.8-25,41.4-32.8,55.7,0,.1,0,.2-.2.3-6.2,11.6-21.3,43.8-27.7,58.5,0,.1,0,.3-.2.4-6.3,15.3-17.6,45.2-22.8,60.3,0,.3-.2.6-.3.8-2.4,7.9-6.9,23-9,30.5,0,.2,0,.3-.1.5-4.1,15.8-11.4,47-14.6,63v.5c-3.4,19-7.2,47.1-9,63.9v.5c-1.4,16.5-3.2,48.4-3.7,64.4v.4c-.2,11.9,1.2,49.4,2.3,64.8v.5c1.4,15.9,5.9,55.1,7.5,64.5v.3c2.9,15.9,9.5,47.2,13.4,63.1,0,.2,0,.3.1.5,4.2,16,13.2,46.4,18.5,61.8,0,.2,0,.3.2.5,5.6,15.3,17.5,45,24,60,0,0,0,.3.2.4,3.2,7.1,14.9,32.1,28.9,57.6,0,0,.2.3.2.4,8.1,14.1,24.9,41.3,33.9,55.1,0,0,.2.3.3.4,11.9,17.3,28.3,39,38.5,51.7.1,0,.2.2.3.4,10.6,12.7,31.8,36.7,42.8,48.4,0,0,.2.2.3.3,9.1,9.4,35.1,33.8,47.1,44.4.1,0,.2.2.4.3,12.5,10.6,37.4,30.5,50.3,40.3.2.2.5.4.7.5,6.7,4.7,19.7,13.6,26.2,18,.1,0,.3.2.4.3,13.8,8.9,41.2,25.4,55.4,33.4.1,0,.3,0,.4.2,16.8,9.1,42.5,21.3,58,28.3.2,0,.3,0,.5.2,15.2,6.4,45,18,60.2,23.4h.3c11.2,3.8,47.3,14,62.3,17.8h.5c15.6,3.6,54.3,11.4,63.7,12.8h.3c16,2.2,47.8,5.5,64.1,6.8h.5c14.4.8,40.2,1.6,57.4,1.6s5.1,0,7.2,0h.5c16.3-.6,48.3-2.7,64.5-4.3h.5c7.8-.9,35.2-4.2,63.8-9.7h.5c15.9-3.4,47-10.9,62.9-15.2h.5c20.2-6,45.2-14.7,61.1-20.6,0,0,.3,0,.4-.2,15.3-6.1,44.6-18.9,59.3-25.7,0,0,.2,0,.3-.2,11.7-5.7,42.9-22.9,56.8-31.1,0,0,.3-.2.4-.2,13.9-8.6,40.6-26.1,53.9-35.4.2-.2.5-.3.7-.5,6.2-4.7,18.7-14.3,25.2-19.4,0,0,.2-.2.4-.3,12.6-10.3,36.8-31.3,48.9-42.3,0,0,.2-.2.4-.3,14-13.3,33.5-33.9,44.8-46.4,0,0,.2-.2.3-.4,10.8-12.5,31.1-37.3,40.9-50,0,0,0-.2.2-.3,7.1-9.6,28-40.7,36.2-53.7,0,0,.2-.3.2-.4,8.5-14.1,27.6-48,31.8-56.6v-.3c7-14.6,20-43.8,26.2-58.9,0-.2,0-.3.2-.5,6-15.5,16.7-45.4,21.4-60.9v-.5c4.4-15.6,12.3-46.6,15.8-62.7v-.5c1.5-7.6,6.8-34.7,10.5-63.6v-.5c1.7-16.3,4.2-48.2,4.9-64.5v-.5c.6-21,0-47.5-.8-64.5v-.2l.1.1Zm-49.2,62.9c-.7,15.2-3.1,45.8-4.7,61.1-2.7,21.5-6.8,44.7-9.8,59.5-3.3,15-10.9,44.8-15,59.4-4.4,14.2-14.4,42.6-20,56.9-5.9,14.2-18.3,42.2-24.9,55.9-3.5,7-21.6,39.2-29.7,52.7-8.2,13-27.8,42.1-33.7,50.1-9.2,11.9-28.6,35.7-38.8,47.4-10.8,12-29.3,31.4-41.9,43.4-11.3,10.4-34.5,30.5-46.3,40.1-6.2,4.8-17.9,13.9-23.9,18.4-12.5,8.7-37.9,25.4-50.9,33.4-12.8,7.5-42.5,23.9-52.9,29-13.7,6.4-41.9,18.7-56.2,24.4-14.5,5.4-38.3,13.8-57.1,19.3-14.8,4-44.7,11.3-59.6,14.4-26.4,5.1-52,8.2-59.6,9.1-15.2,1.4-45.8,3.5-61.1,4.1-14.8.2-44.9-.6-60.3-1.4-15.3-1.2-45.8-4.4-60.8-6.4-7.8-1.2-44.1-8.4-59.3-12-14.9-3.8-48.8-13.5-58.1-16.6-14.2-5.1-42.8-16.2-57.1-22.2-14.7-6.5-38.5-18-54.2-26.4-13.3-7.5-39.5-23.3-52.5-31.6-6.2-4.1-18.4-12.5-24.8-17-12.2-9.2-35.9-28.2-47.5-38-12-10.6-36.4-33.6-43.9-41.4-10.3-11-30.6-34-40.6-45.9-9.6-12-24.9-32.2-36-48.3-8.4-12.9-24.5-39-32.1-52.2-10.4-18.9-20.8-40.2-27-53.8-6.1-14-17.5-42.5-22.8-56.9-4.9-14.2-13.4-43-17.3-57.8-3.6-15-10-45-12.7-59.8-1.3-7.8-5.6-44.5-7-60.1-1-15.3-2.3-50.4-2.2-60.4.4-15,2.2-45.6,3.5-61.1,1.7-16.1,5.3-42.7,8.4-59.7,3-15,10-44.9,13.9-59.7,2-7.1,6.2-21.3,8.5-28.9,4.9-14.2,15.7-42.6,21.5-56.9,6.4-14.7,20.7-44.9,25.8-54.6,7.4-13.4,23-39.8,31.1-52.8,8.4-12.8,22.8-33.6,34.8-49.2,9.6-12,29.5-35.4,39.7-46.7,14.8-15.8,31.8-32.2,42.8-42.3,11.5-10.2,35.1-29.8,47.1-39.2,11.9-8.9,36.7-25.9,49.7-34.3,13-8,39.6-23.3,53-30.6,7-3.6,40.6-19.1,55-25.2,14.3-5.7,47.4-17.8,56.8-20.7,14.5-4.3,44.2-12.1,59.2-15.6,15.8-3.4,42.2-8.2,59.4-10.5,15.2-1.7,45.8-4.4,61.1-5.3,7.6-.3,22.4-.7,30.1-.8,15.3.3,45.6,1.7,60.8,2.9,15.1,1.5,48.2,5.6,59.9,7.7,14.9,2.9,44.9,9.5,59.8,13.3,14.9,4.1,39.1,11.4,57.5,17.9,14.3,5.4,42.7,17.1,56.7,23.3,24.2,11.4,46.8,23.9,53.5,27.7,13.2,7.8,39.1,24.1,51.8,32.6,12.3,8.6,36.1,26.9,48,36.6,11.8,10.1,34.6,30.6,45.5,41,5.6,5.5,30.6,32.6,40.9,44.5,9.9,11.9,31.6,39.6,37.2,47.6,8.6,12.5,25.2,38.3,33.1,51.5,8.1,14,20.8,37.5,28.3,53.2,6.3,13.8,18.3,42.1,23.8,56.4,2.6,7.1,7.6,21.1,10.1,28.4,4.4,14.5,12.4,43.8,16,58.7,3.3,14.8,9.6,47.6,11.2,59.3,1.9,15.1,4.8,45.6,5.8,61,.7,15.5,1.2,40.8.7,60.3l.3-.2h0Z"/>
      </g>
      <g id="Layer_3" data-name="Layer 3">
        <path class="cls-1" d="m1439.72,688.5v-1.1c-1.8-17-6.9-53.3-9.7-67.3,0-.3,0-.6-.2-.8-3.5-16.3-11.7-48.6-16.4-65.2,0-.4-.2-.7-.3-1.1-3.1-9.9-11.5-36-22.9-63.6,0-.4-.3-.7-.4-1-6.8-15.6-21.2-45.8-29-60.8-.2-.3-.4-.7-.5-1-9.9-18-25.2-42.7-35.3-57.9-.2-.3-.4-.6-.6-.9-9.8-14-29.7-40.7-40.3-53.9,0-.1-.2-.3-.3-.4-6.9-8.4-35.4-38.9-46.8-50.3-.2-.2-.5-.5-.8-.7-12.4-11.9-39.9-36.5-51-45.4-.2-.2-.4-.3-.7-.5-13.4-10.4-40.6-29.9-54.8-39.4-.3-.2-.6-.4-.9-.6-8.7-5.6-31.8-20-57.8-33.7-.3-.2-.7-.3-1-.5-14.7-7.3-44.1-20.8-59.3-27.2-.3,0-.7-.3-1-.4-21.4-8.5-46.8-16.9-62-21.5-.3,0-.7-.2-1-.3-16.1-4.5-47.5-12.2-63.4-15.6-.2,0-.5,0-.8-.2-13.4-2.6-48.8-7.5-65.4-9.3h-1.1c-16.1-1.4-55.5-3.4-66-3.4h0c-5.3,0-33.8,1-49.4,2h-1.1c-16.5,1.4-48.6,5.1-64.8,7.5h-.5c-10.3,1.6-49.7,10.4-65,14.4-.3,0-.7.2-1,.3-15.8,4.4-51.8,15.8-63.1,20.1-.2,0-.4.2-.6.2-15,6-44.7,18.8-59.8,26-.3.1-.7.3-1,.5-15.8,7.8-40.8,21.3-58.2,31.9-.3.2-.7.4-1,.6-14.4,9.2-42,28.1-55.7,38.2-.3.2-.6.4-.9.7-23.6,18.2-44.1,36.7-51.8,43.7-.3.2-.6.5-.8.8-12.4,11.9-35.7,35.8-47.1,48.3-.2.2-.4.4-.6.6-9.4,10.7-32.2,39.6-42.3,53.5-.2.3-.4.6-.6.9-9.3,13.3-32,48.2-37.2,57.6,0,.2-.2.3-.3.5-8.2,14.9-23.1,44.6-30.3,60-.2.3-.3.7-.5,1-7.1,16.2-18.1,43.8-24.6,63,0,.4-.2.7-.4,1.1-5.1,16.2-13.9,48.3-17.9,64.8,0,.4-.2.7-.3,1.1-6.3,29.1-10,56.3-11.4,66.6v1.1c-1.8,17-4.2,50.2-4.8,67v.8c-.3,14.2,1.1,50.9,2.3,68v1.1c1.5,16.1,6.8,57.4,8.8,67.9v.5c3.4,16.4,11.1,48.8,15.7,65.2,0,.4.2.7.3,1.1,5.1,16.9,14.5,45,22,64,0,.3.3.7.4,1.1,6.6,15.5,20.6,45.8,28.3,61,.2.3.4.7.5,1,14,26.3,28.8,49.5,34.5,58.3.2.3.4.6.6.9,9.7,14.2,29.4,41.2,39.8,54.4.2.2.3.4.5.7,9,11,33.8,38.3,45.8,50.6.2.2.5.5.8.8,11.5,11.3,42.2,39.5,50.8,46.4.1,0,.3.2.4.3,13.2,10.4,40.1,30.2,54.3,40,.3.2.6.4.9.6,14.8,9.7,40,25.1,57.6,34.6.3.2.6.3.9.5,14.6,7.5,43.8,21.3,59.1,27.9.3,0,.7.3,1,.4,22.1,9,38.8,15.1,61.7,22.3.3,0,.7.2,1,.3,15.9,4.6,47.2,12.7,63.3,16.3.4,0,.7,0,1.1.2,19.4,3.9,48,8.1,64.9,10.1h1.1c16.6,1.6,48.8,3.6,65.1,4.1h3c14,0,48.9-1.5,63.9-2.6h1c15.7-1.5,55.8-6.6,66-8.5h.5c16-3.2,47.4-10.6,63.5-14.9.3,0,.7-.2,1-.3,15-4.4,45.9-14.3,62.6-20.8.2,0,.5-.2.8-.3,15.2-6.2,44.7-19.4,59.6-26.6.3-.2.7-.3,1-.5,9.1-4.6,32.9-17.2,58-32.8.3-.2.6-.4,1-.6,14.3-9.4,41.7-28.6,55.3-38.8.3-.2.6-.4.9-.7,16-12.6,38.4-32.3,51.3-44.5l.8-.8c12.2-12,35.2-36.1,46.4-48.7,0,0,.2-.3.3-.4,7.1-8.2,32.5-41.2,41.9-54.4.2-.3.4-.6.6-.9,9.7-14.2,29.3-45.3,36.2-57.7,0-.2.3-.5.4-.8,8-15,22.7-44.9,29.6-60.4.2-.3.3-.6.4-1,4.1-9.6,14.5-34.9,23.8-63.3,0-.4.2-.7.3-1.1,4.9-16.3,13.4-48.5,17.2-65,0-.4.2-.7.2-1.1,4.1-19.9,8.4-49.2,10.5-66.8v-1.2c1.6-17.1,3.6-50.3,4-66.9v-.5c.2-10.8-1.9-52.3-3.2-68.4l.4-.2v.1Zm-100.4,126c-1.8,15.6-5.6,40.9-8.9,57.2-3.3,14.3-10.9,43.3-15.2,57.5-8,24.6-17.3,47.1-20.3,54.2-6.1,13.5-19.4,40.5-26.2,53.5-5.1,9.1-22.3,36.4-30.9,49.1-9.1,12.7-31,41.1-35.4,46.2-9.7,10.9-30.5,32.7-41.2,43.2-11.5,10.8-30.8,27.7-44,38.2-11.8,8.9-36.5,26.2-48.9,34.4-21.2,13.2-41.5,23.9-49.7,28.1-13,6.3-39.7,18.2-52.9,23.6-12.1,4.7-38.8,13.4-53.5,17.7-14.1,3.8-42.6,10.4-56.4,13.2-6.4,1.2-41,5.7-56,7.1-15.2,1.1-48.2,2.4-56.5,2.3-14.1-.5-43.4-2.3-57.8-3.6-15.1-1.8-39.7-5.4-55.8-8.6-14-3.1-42.2-10.4-56.1-14.4-19.8-6.3-33.8-11.3-52.9-19.1-13.2-5.8-39.6-18.2-52.3-24.7-14.3-7.8-36.6-21.3-49.5-29.7-12.4-8.5-36.7-26.5-48.2-35.5-5.2-4.3-31.8-28.5-43-39.4-10.7-11-32.5-35-39.1-43.1-9-11.5-26.7-35.8-35.2-48.1-4.2-6.5-17.4-27.2-29.5-49.9-6.7-13.3-19.3-40.5-25-54-6.2-15.6-14.3-39.8-18.8-54.8-4-14.4-11-43.7-13.9-57.8-1.2-6.6-5.9-42-7.4-57.5-1-15.2-2.2-47.4-2-57.9.6-14.6,2.7-44.5,4.2-59.3,1-7.7,4.3-31.9,9.7-57,3.5-14.3,11.4-43.2,15.8-57.3,5.4-15.8,14.8-39.6,21.1-54,6.2-13.4,19.8-40.3,26.8-53.1,3.3-5.8,22.8-36,31.7-48.8,9.1-12.4,29.1-37.8,36-45.7,9.9-10.8,30.9-32.4,41.7-42.8,7-6.4,24.5-22.1,44.5-37.5,11.9-8.8,36.8-25.8,49.3-33.8,14.2-8.6,36.3-20.5,49.9-27.3,13.2-6.2,40.1-17.9,53.1-23,7.6-2.8,39-12.8,53.8-17,14.7-3.8,48.8-11.2,55.1-12.3,14-2.1,43.2-5.5,57.6-6.7,14.4-.9,38.5-1.7,42.6-1.8h0c6.3,0,41.4,1.7,57,3,15,1.6,46.1,6,55.9,7.9,13.8,2.9,42.2,9.9,56.3,13.8,14.3,4.4,36.1,11.7,53.2,18.4,13.2,5.6,39.7,17.8,52.6,24.1,22.5,11.9,43.1,24.8,49.6,28.9,12.4,8.3,36.9,26,48.6,35,8.2,6.6,32.4,28.2,43.4,38.8,10.9,11,35.4,37.4,39.7,42.6,9.1,11.4,27.2,35.5,35.7,47.7,8.7,13.1,22.2,34.9,30.2,49.6,6.8,13.1,19.7,40.1,25.6,53.7,9.8,24,17.2,47.1,19.6,54.5,4.1,14.4,11.5,43.5,14.6,57.7,2,10.3,6.5,42.2,8.2,57.4,1.2,15.5,2.9,51.3,2.8,57.9-.4,14.4-2.2,44.4-3.6,59.3v-.3h.2Z"/>
      </g>
      <g id="Layer_8" data-name="Layer 8">
        <path class="cls-1" d="m1067.62,409.4c-.2,0-.4-.2-.6-.2.3,0,.5.2.6.2Z"/>
      </g>
      <g id="Layer_5" data-name="Layer 5">
        <path class="cls-1" d="m1112.12,1176.2c-35.7-47.6-69.3-89.1-99.8-123.4l-6-5.4c-6.8-7.4-12.65-13.7-17.7-19.08-5.05-5.37-9.3-9.82-12.9-13.52-.3-.4-.6-.8-.9-1.1-26.3-26.6-51.9-49.7-76.1-68.5-.9-.7-2-1.2-3.1-1.4-3.9-3.1-7.7-6-11.5-8.9-.5-.8-1.2-1.5-2-2.1-4-2.9-8.3-5.8-12.6-8.7-.4-.3-.9-.5-1.3-.7-2.9-2-5.8-3.9-8.6-5.8s-5.6-3.7-8.3-5.4c-12.2-7.7-23.7-13.9-34.6-18.7-.4-.2-.9-.4-1.3-.4-22.8-10.7-46.6-17.8-70.8-21h-3c-20.9,2.8-41.5,8.4-61.5,16.9-.4,0-.9.1-1.4.3-.8.2-1.5.7-2.2,1.2-1.9.8-3.7,1.6-5.6,2.5-.4.1-.9.2-1.3.4-14.5,6.4-30.2,15.3-47.1,26.8-30.2,19.5-62.3,45.7-95.7,78.1-.7.6-1.1,1.3-1.5,2-6.3,5.4-19.4,18.5-50.5,52.5-.5.3-1,.7-1.4,1.2-31.6,35.2-65,76.3-99.4,122.1-2.5,3.3-1.8,8,1.5,10.5,0,.2.2.2.2.2,39.5,37.2,90.2,67.8,150.8,91,60.6,23.2,132.7,39.7,214.5,48.9h4.4c81.8-9.3,153.9-25.7,214.5-48.9,30.3-11.65,58.15-25.12,83.35-40.34,25.2-15.21,47.75-32.16,67.45-50.76h-.1c3.3-2.5,4-7.2,1.5-10.5Zm-22.81,9.54l-344.45,96.12c-.69.38-2.04.45-2.79.23l-345.34-98.82c-2.55-.73-2.64-4.33-.12-5.17l18.37-6.55c.81-.29,1.68-.3,2.5-.05l248.68,78.53-221-88.43c-2.71-1.09-2.78-4.9-.1-6.08l13.3-6.81c2.41-1.23,5.26-1.3,7.72-.18l183.88,83.66-168.03-91.16c-1.96-1.06-1.91-3.9.09-4.89l14.96-7.64c1.1-.56,2.41-.52,3.47.11l241.7,145.85c.74.44,2,.4,2.74-.04l242.74-142.8c1.3-.77,2.9-.87,4.29-.24l15.34,6.87c2.13.95,2.24,3.93.19,5.04l-165.15,89.41,180.25-81.66c1.46-.67,3.14-.62,4.56.12l15.42,7.43c2.35,1.14,2.24,4.53-.19,5.5l-217,87.02,243.75-76.83c.7-.22,1.45-.16,2.11.14l18.19,5.92c2.65.86,2.58,4.65-.1,5.41Z"/>
      </g>
    </g>
    <circle class="cls-1" cx="743.07" cy="624.24" r="240.17" transform="translate(-223.77 708.26) rotate(-45)"/>
  </g>
</svg>